<?xml version="1.0" standalone="no"?>
<!DOCTYPE svg PUBLIC "-//W3C//DTD SVG 20010904//EN"
 "http://www.w3.org/TR/2001/REC-SVG-20010904/DTD/svg10.dtd">
<svg version="1.0" xmlns="http://www.w3.org/2000/svg"
 width="672.000000pt" height="672.000000pt" viewBox="0 0 672.000000 672.000000"
 preserveAspectRatio="xMidYMid meet">
<metadata>
Created by potrace 1.11, written by Peter Selinger 2001-2013
</metadata>
<g transform="translate(0.000000,672.000000) scale(0.100000,-0.100000)"
fill="#000000" stroke="none">
<path d="M1220 6278 c-146 -16 -266 -30 -266 -31 -5 -6 537 -4848 551 -4916
72 -376 292 -618 650 -718 l100 -28 1095 0 1095 0 100 28 c338 94 545 306 634
647 11 41 22 94 26 116 8 53 544 4868 541 4871 -3 3 -588 64 -591 61 -4 -3
-48 -388 -220 -1921 -51 -455 -95 -830 -97 -833 -3 -3 -59 11 -124 30 -181 54
-287 69 -464 69 -229 0 -334 -22 -722 -152 l-178 -60 -177 60 c-385 129 -485
150 -718 153 l-160 2 -86 775 c-159 1419 -209 1862 -211 1864 -5 4 -287 -31
-292 -36 -3 -3 19 -225 49 -494 30 -270 95 -859 144 -1311 50 -451 91 -831 91
-845 0 -21 -8 -26 -61 -42 -34 -10 -64 -16 -67 -13 -2 3 -47 380 -98 838 -51
458 -121 1073 -154 1367 -33 294 -60 538 -60 543 0 12 -33 9 -330 -24z m1480
-2952 c41 -9 170 -48 287 -87 l213 -70 0 -995 0 -994 -315 0 c-173 0 -315 1
-315 3 0 2 -54 488 -120 1082 -66 594 -120 1081 -120 1083 0 11 303 -8 370
-22z m1797 0 c40 -8 125 -33 190 -54 110 -36 118 -40 116 -63 -34 -339 -197
-1762 -208 -1803 -24 -93 -77 -161 -146 -190 -66 -28 -201 -36 -576 -36 l-373
0 0 995 0 994 228 74 c125 41 261 80 302 87 41 6 82 13 90 15 38 9 312 -5 377
-19z m-2358 -1051 c61 -550 113 -1015 117 -1033 l5 -33 -28 15 c-58 30 -106
99 -128 182 -11 41 -171 1435 -208 1803 -2 21 5 27 63 46 36 12 66 22 67 21 1
-1 52 -451 112 -1001z"/>
</g>
</svg>
